# xmcd
#
# Track frame offsets:
#	150
#	17417
#	37487
#	54440
#	69101
#	88168
#	107142
#	132738
#	149545
#	174953
#	190328
#	215326
#	245376
#
# Disc length: 3620 seconds
#
# Revision: 1
# Processed by: cddbd v1.5.2PL0 Copyright (c) Steve Scherf et al.
# Submitted via: audiograbber 1.80.04
#
DISCID=bd0e220d
DTITLE=Nena - Made In Germany
DYEAR=10
DGENRE=
TTITLE0=SchönSchönSchön
TTITLE1=Du bist so gut für mich
TTITLE2=Ich bin hyperaktiv
TTITLE3=Dreh Dich
TTITLE4=Geheimnis
TTITLE5=Du hast Dich entschieden
TTITLE6=Wir sind wahr
TTITLE7=Made in Germany
TTITLE8=In meinem Leben
TTITLE9=Es gibt keine Sicherheit
TTITLE10=Schmerzen
TTITLE11=Ganz viel Zeit
TTITLE12=Nachts wenn es warm ist
EXTD=
EXTT0=
EXTT1=
EXTT2=
EXTT3=
EXTT4=
EXTT5=
EXTT6=
EXTT7=
EXTT8=
EXTT9=
EXTT10=
EXTT11=
EXTT12=
PLAYORDER=
